<svg width="72" height="73" viewBox="0 0 72 73" fill="none" xmlns="http://www.w3.org/2000/svg">
<g clip-path="url(#clip0_2_431)">
<g clip-path="url(#clip1_2_431)">
<path d="M67.7812 17.4268V13.208H41.9653C41.3287 11.4131 39.9043 9.98868 38.1094 9.35207V0.411133H33.8906V9.35207C32.0957 9.98868 30.6713 11.4131 30.0347 13.208H4.21875V17.4268H9.49219L0 40.208V40.6299C0 46.4454 4.73133 51.1768 10.5469 51.1768H14.7656C20.5812 51.1768 25.3125 46.4454 25.3125 40.6299V40.208L15.8203 17.4268H30.0347C30.6713 19.2217 32.0957 20.6461 33.8906 21.2827V51.5297C29.7046 52.3829 26.4151 55.724 25.6331 59.935C20.7363 60.8443 17.0156 65.1453 17.0156 70.3018V72.4111H54.9845V70.3018C54.9845 65.1453 51.2639 60.8443 46.367 59.9349C45.5849 55.7237 42.2954 52.3826 38.1094 51.5296V21.2827C39.9043 20.6461 41.3287 19.2217 41.9653 17.4268H56.1797L46.6875 40.208V40.6299C46.6875 46.4454 51.4188 51.1768 57.2344 51.1768H61.4531C67.2687 51.1768 72 46.4454 72 40.6299V40.208L62.5078 17.4268H67.7812ZM12.6562 20.8018L20.0391 38.5205H5.27344L12.6562 20.8018ZM14.7656 46.958H10.5469C7.79709 46.958 5.45231 45.1943 4.58156 42.7379H20.7309C19.8602 45.1943 17.5154 46.958 14.7656 46.958V46.958ZM59.3438 20.8018L66.7266 38.5205H51.9609L59.3438 20.8018ZM61.4531 46.958H57.2344C54.4846 46.958 52.1398 45.1943 51.2691 42.7379H67.4184C66.5477 45.1943 64.2029 46.958 61.4531 46.958V46.958ZM50.4042 68.1924H21.5958C22.4664 65.7369 24.8124 63.9736 27.5625 63.9736H44.4376C47.1877 63.9736 49.5336 65.7369 50.4042 68.1924V68.1924ZM41.9653 59.7549H30.0347C30.9054 57.2997 33.2502 55.5361 36.0001 55.5361C38.7499 55.5361 41.0946 57.2997 41.9653 59.7549ZM36 17.4268C34.8369 17.4268 33.8906 16.4805 33.8906 15.3174C33.8906 14.1543 34.8369 13.208 36 13.208C37.1631 13.208 38.1094 14.1543 38.1094 15.3174C38.1094 16.4805 37.1631 17.4268 36 17.4268Z" fill="#252B42"/>
</g>
</g>
<defs>
<clipPath id="clip0_2_431">
<rect width="72" height="72" fill="white" transform="translate(0 0.411133)"/>
</clipPath>
<clipPath id="clip1_2_431">
<rect width="72" height="72" fill="white" transform="translate(0 0.411133)"/>
</clipPath>
</defs>
</svg>
