<svg width="72" height="73" viewBox="0 0 72 73" fill="none" xmlns="http://www.w3.org/2000/svg">
<g clip-path="url(#clip0_2_417)">
<g clip-path="url(#clip1_2_417)">
<g clip-path="url(#clip2_2_417)">
<path d="M0 66.4109H42V72.4109H0V66.4109Z" fill="#252B42"/>
<path d="M36 60.3623C36 59.5667 35.6839 58.8036 35.1213 58.241C34.5587 57.6784 33.7956 57.3623 33 57.3623H9C8.20435 57.3623 7.44129 57.6784 6.87868 58.241C6.31607 58.8036 6 59.5667 6 60.3623V63.4111H36V60.3623Z" fill="#252B42"/>
<path d="M40.8193 35.8343C39.4215 37.3241 38.2493 39.0105 37.3401 40.8398L62.0331 65.5328C62.5956 66.0953 63.3586 66.4112 64.1541 66.4112C64.9496 66.4112 65.7125 66.0953 66.2751 65.5328L70.5178 61.2901C70.7964 61.0115 71.0174 60.6808 71.1682 60.3168C71.3189 59.9528 71.3965 59.5627 71.3965 59.1687C71.3965 58.7747 71.3189 58.3846 71.1682 58.0206C71.0174 57.6566 70.7964 57.3259 70.5178 57.0473L45.8248 32.3611C43.9922 33.2624 42.305 34.4331 40.8193 35.8343V35.8343Z" fill="#252B42"/>
<path d="M25.9701 20.9851C23.7014 23.0905 21.0753 24.7741 18.2151 25.9568L33.7206 41.4623C34.9139 38.6071 36.5993 35.9835 38.6998 33.7111C40.9687 31.6058 43.5948 29.9219 46.4548 28.7386L30.9486 13.2361C29.7548 16.0903 28.0698 18.713 25.9701 20.9851V20.9851Z" fill="#252B42"/>
<path d="M36.572 1.8975L32.33 6.1395C31.1586 7.31089 31.1586 9.2101 32.33 10.3815L49.298 27.3495C50.4694 28.5209 52.3686 28.5209 53.54 27.3495L57.782 23.1075C58.9534 21.9361 58.9534 20.0369 57.782 18.8655L40.814 1.8975C39.6426 0.726103 37.7434 0.726102 36.572 1.8975Z" fill="#252B42"/>
<path d="M11.1162 27.3487L6.87417 31.5907C5.70278 32.7621 5.70278 34.6613 6.87417 35.8327L23.8422 52.8007C25.0136 53.9721 26.9128 53.9721 28.0842 52.8007L32.3262 48.5587C33.4976 47.3873 33.4976 45.4881 32.3262 44.3167L15.3582 27.3487C14.1868 26.1773 12.2876 26.1773 11.1162 27.3487Z" fill="#252B42"/>
</g>
</g>
</g>
<defs>
<clipPath id="clip0_2_417">
<rect width="72" height="72" fill="white" transform="translate(0 0.411133)"/>
</clipPath>
<clipPath id="clip1_2_417">
<rect width="71.3967" height="72.6344" fill="white" transform="translate(0 -0.223389)"/>
</clipPath>
<clipPath id="clip2_2_417">
<rect width="71.3967" height="72.6344" fill="white" transform="translate(0 -0.223389)"/>
</clipPath>
</defs>
</svg>
