<svg width="72" height="73" viewBox="0 0 72 73" fill="none" xmlns="http://www.w3.org/2000/svg">
<g clip-path="url(#clip0_2_439)">
<path d="M24.9301 14.282H12.3408C11.1757 14.282 10.2314 15.2263 10.2314 16.3914C10.2314 17.5565 11.1757 18.5007 12.3408 18.5007H24.9301C26.0946 18.5007 27.0394 17.5565 27.0394 16.3914C27.0394 15.2263 26.0946 14.282 24.9301 14.282Z" fill="#252B42"/>
<path d="M24.9301 22.72H12.3408C11.1757 22.72 10.2314 23.6642 10.2314 24.8293C10.2314 25.9944 11.1757 26.9387 12.3408 26.9387H24.9301C26.0946 26.9387 27.0394 25.9944 27.0394 24.8293C27.0394 23.6642 26.0946 22.72 24.9301 22.72Z" fill="#252B42"/>
<path d="M24.9301 31.158H12.3408C11.1757 31.158 10.2314 32.1022 10.2314 33.2673C10.2314 34.4324 11.1757 35.3767 12.3408 35.3767H24.9301C26.0946 35.3767 27.0394 34.4324 27.0394 33.2673C27.0394 32.1022 26.0946 31.158 24.9301 31.158Z" fill="#252B42"/>
<path d="M24.9301 39.5962H12.3408C11.1757 39.5962 10.2314 40.5405 10.2314 41.7056C10.2314 42.8707 11.1757 43.8149 12.3408 43.8149H24.9301C26.0946 43.8149 27.0394 42.8707 27.0394 41.7056C27.0394 40.5405 26.0946 39.5962 24.9301 39.5962Z" fill="#252B42"/>
<path d="M24.9301 48.1753H12.3408C11.1757 48.1753 10.2314 49.1201 10.2314 50.2847C10.2314 51.4498 11.1757 52.394 12.3408 52.394H24.9301C26.0946 52.394 27.0394 51.4498 27.0394 50.2847C27.0394 49.1201 26.0946 48.1753 24.9301 48.1753Z" fill="#252B42"/>
<path d="M32.0142 18.5007H44.6034C45.7685 18.5007 46.7128 17.5565 46.7128 16.3914C46.7128 15.2263 45.7685 14.282 44.6034 14.282H32.0142C30.8496 14.282 29.9048 15.2263 29.9048 16.3914C29.9048 17.5565 30.8496 18.5007 32.0142 18.5007Z" fill="#252B42"/>
<path d="M32.0142 26.9387H44.6034C45.7685 26.9387 46.7128 25.9944 46.7128 24.8293C46.7128 23.6642 45.7685 22.72 44.6034 22.72H32.0142C30.8496 22.72 29.9048 23.6642 29.9048 24.8293C29.9048 25.9944 30.8496 26.9387 32.0142 26.9387Z" fill="#252B42"/>
<path d="M40.1869 33.2673C40.1869 32.1022 39.2426 31.158 38.0775 31.158H32.0142C30.8496 31.158 29.9048 32.1022 29.9048 33.2673C29.9048 34.4324 30.8496 35.3767 32.0142 35.3767H38.0775C39.2426 35.3767 40.1869 34.4324 40.1869 33.2673Z" fill="#252B42"/>
<path d="M60.1691 49.0657C59.2605 48.3367 57.9334 48.4823 57.2039 49.3909L51.7712 56.1639L48.4077 53.7272C47.4645 53.0433 46.1451 53.2542 45.4617 54.1974C44.7784 55.1411 44.9893 56.46 45.9325 57.1434L50.9219 60.7584C51.2954 61.0287 51.7283 61.16 52.1584 61.16C52.7775 61.16 53.3894 60.8881 53.8047 60.3701L60.4948 52.0309C61.2238 51.1223 61.0782 49.7946 60.1691 49.0657Z" fill="#252B42"/>
<path d="M65.501 42.5904C62.7534 39.7944 59.2229 38.0322 55.3975 37.5131V8.90631C55.3975 4.22229 51.5863 0.411133 46.9023 0.411133H10.0426C5.35803 0.411133 1.54688 4.22229 1.54688 8.90631V57.7697C1.54688 62.4542 5.35803 66.2654 10.0421 66.2654H39.6881C43.0241 70.1842 47.8207 72.4111 53.0101 72.4111C62.6699 72.4111 70.5284 64.5471 70.5284 54.8808C70.5284 50.2534 68.7431 45.8885 65.501 42.5904V42.5904ZM5.76562 57.7697V8.90631C5.76562 6.54865 7.68439 4.62988 10.0426 4.62988H46.9023C49.2605 4.62988 51.1787 6.54865 51.1787 8.90631V37.446C42.3765 38.3651 35.4919 45.833 35.4919 54.8808C35.4919 57.3884 36.0148 59.8131 37.0179 62.0461H10.0426C7.68439 62.0461 5.76562 60.1279 5.76562 57.7697ZM53.0101 68.1924C48.7974 68.1924 44.9247 66.2582 42.3842 62.8865C40.6351 60.5646 39.7101 57.7966 39.7101 54.8808C39.7101 47.5408 45.6768 41.5692 53.0101 41.5692C53.0793 41.5692 53.1491 41.5703 53.2183 41.5714L53.2507 41.572C56.7515 41.634 60.0337 43.0458 62.4924 45.5474C64.9539 48.0517 66.3096 51.3668 66.3096 54.8808C66.3096 62.2208 60.3435 68.1924 53.0101 68.1924V68.1924Z" fill="#252B42"/>
</g>
<defs>
<clipPath id="clip0_2_439">
<rect width="72" height="72" fill="white" transform="translate(0 0.411133)"/>
</clipPath>
</defs>
</svg>
